<svg xmlns="http://www.w3.org/2000/svg" xmlns:xlink="http://www.w3.org/1999/xlink" width="300" zoomAndPan="magnify" viewBox="0 0 224.87999 74.999997" height="100" preserveAspectRatio="xMidYMid meet" version="1.0"><defs><g/></defs><g fill="#081e3f" fill-opacity="1"><g transform="translate(0.397038, 48.811618)"><g><path d="M 26.136719 -25.691406 L 22.355469 -25.691406 C 20.5 -25.691406 19.351562 -24.839844 18.796875 -23.097656 L 16.125 -14.792969 L 12.9375 -23.207031 C 12.308594 -24.914062 11.160156 -25.691406 9.34375 -25.691406 L 5.933594 -25.691406 C 3.894531 -25.691406 2.78125 -24.578125 2.816406 -22.539062 C 2.855469 -16.050781 2.855469 -9.640625 2.816406 -3.152344 C 2.78125 -1.113281 3.894531 0 5.859375 0 C 7.824219 0 8.898438 -1.113281 8.824219 -3.1875 C 8.675781 -7.042969 8.601562 -11.011719 8.527344 -17.757812 L 8.710938 -17.757812 L 12.605469 -5.5625 C 13.160156 -3.820312 14.011719 -2.964844 15.273438 -2.964844 C 16.496094 -2.964844 17.386719 -3.820312 17.980469 -5.523438 L 22.207031 -17.757812 L 22.355469 -17.757812 L 22.390625 -12.863281 C 22.390625 -9.601562 22.355469 -6.375 22.316406 -3.152344 C 22.316406 -1.113281 23.429688 0 25.46875 0 L 26.136719 0 C 28.175781 0 29.289062 -1.113281 29.289062 -3.152344 C 29.289062 -6.375 29.25 -9.601562 29.25 -12.863281 C 29.25 -16.089844 29.289062 -19.316406 29.289062 -22.539062 C 29.289062 -24.578125 28.175781 -25.691406 26.136719 -25.691406 Z M 26.136719 -25.691406 "/></g></g></g><g fill="#081e3f" fill-opacity="1"><g transform="translate(30.981589, 48.811618)"><g><path d="M 7.75 0.371094 C 9.824219 0.371094 11.828125 -0.332031 13.308594 -1.78125 C 13.347656 -1.484375 13.382812 -1.1875 13.496094 -0.890625 C 13.644531 -0.296875 14.644531 0 16.535156 0 L 16.867188 0 C 18.871094 0 19.90625 -1.148438 19.796875 -3.226562 C 19.6875 -5.746094 19.6875 -8.972656 19.6875 -13.421875 C 19.6875 -18.386719 16.941406 -20.835938 11.417969 -20.835938 C 6.003906 -20.835938 3.152344 -19.390625 2.296875 -16.496094 C 1.707031 -14.457031 3.226562 -13.273438 5.300781 -13.273438 L 5.671875 -13.273438 C 7.488281 -13.273438 7.636719 -14.273438 8.710938 -15.902344 C 9.15625 -16.570312 9.972656 -16.832031 10.9375 -16.832031 C 12.566406 -16.832031 13.308594 -16.015625 13.308594 -13.308594 L 13.308594 -12.046875 C 4.96875 -12.269531 1.148438 -9.863281 1.148438 -5.226562 C 1.148438 -1.335938 4.078125 0.371094 7.75 0.371094 Z M 9.714844 -3.820312 C 7.96875 -3.820312 7.042969 -4.820312 7.042969 -6.226562 C 7.042969 -8.601562 10.007812 -9.007812 13.382812 -9.082031 L 13.382812 -5.746094 C 12.53125 -4.523438 11.382812 -3.820312 9.714844 -3.820312 Z M 9.714844 -3.820312 "/></g></g></g><g fill="#081e3f" fill-opacity="1"><g transform="translate(51.074659, 48.811618)"><g><path d="M 20.09375 -3.484375 C 18.277344 -9.453125 17.015625 -10.972656 13.753906 -11.34375 L 13.753906 -11.492188 C 15.683594 -12.269531 17.648438 -14.308594 19.019531 -16.832031 C 20.128906 -18.945312 18.832031 -20.5 16.496094 -20.5 L 15.757812 -20.5 C 13.863281 -20.5 12.902344 -19.539062 12.308594 -17.722656 C 11.566406 -15.421875 10.195312 -13.382812 8.414062 -12.382812 L 8.414062 -13.828125 C 8.453125 -17.089844 8.453125 -20.425781 8.453125 -23.691406 C 8.453125 -25.730469 7.339844 -26.839844 5.300781 -26.839844 L 5.078125 -26.839844 C 3.039062 -26.839844 1.929688 -25.730469 1.929688 -23.691406 C 1.964844 -20.425781 2.039062 -17.089844 2.039062 -13.828125 C 2.039062 -10.15625 1.964844 -6.746094 1.929688 -3.152344 C 1.929688 -1.113281 3.039062 0 5.078125 0 L 5.300781 0 C 7.339844 0 8.453125 -1.113281 8.453125 -3.152344 C 8.414062 -4.929688 8.414062 -6.636719 8.414062 -8.378906 L 8.972656 -8.378906 C 10.824219 -8.378906 11.640625 -7.230469 12.828125 -2.890625 C 13.347656 -0.925781 14.53125 0 16.386719 0 L 17.425781 0 C 19.6875 0 20.761719 -1.371094 20.09375 -3.484375 Z M 20.09375 -3.484375 "/></g></g></g><g fill="#081e3f" fill-opacity="1"><g transform="translate(71.797964, 48.811618)"><g><path d="M 10.898438 0.371094 C 15.460938 0.371094 18.238281 -0.925781 19.128906 -3.671875 C 19.6875 -5.339844 18.3125 -6.375 16.386719 -6.375 C 14.792969 -6.375 14.644531 -5.339844 13.234375 -4.410156 C 12.714844 -4.113281 11.9375 -3.929688 10.9375 -3.929688 C 9.007812 -3.929688 7.601562 -4.855469 7.453125 -8.675781 L 19.277344 -8.675781 C 19.574219 -8.675781 19.796875 -8.898438 19.832031 -9.269531 C 20.539062 -16.164062 17.796875 -20.835938 10.898438 -20.835938 C 4.484375 -20.835938 1.335938 -17.386719 1.335938 -10.566406 C 1.335938 -3.261719 4.261719 0.371094 10.898438 0.371094 Z M 7.488281 -12.160156 C 7.414062 -15.164062 8.675781 -16.609375 10.601562 -16.609375 C 12.753906 -16.609375 13.644531 -15.125 13.570312 -12.160156 Z M 7.488281 -12.160156 "/></g></g></g><g fill="#ffcc00" fill-opacity="1"><g transform="translate(100.332922, 48.811618)"><g><path d="M 26.136719 -25.691406 L 22.355469 -25.691406 C 20.5 -25.691406 19.351562 -24.839844 18.796875 -23.097656 L 16.125 -14.792969 L 12.9375 -23.207031 C 12.308594 -24.914062 11.160156 -25.691406 9.34375 -25.691406 L 5.933594 -25.691406 C 3.894531 -25.691406 2.78125 -24.578125 2.816406 -22.539062 C 2.855469 -16.050781 2.855469 -9.640625 2.816406 -3.152344 C 2.78125 -1.113281 3.894531 0 5.859375 0 C 7.824219 0 8.898438 -1.113281 8.824219 -3.1875 C 8.675781 -7.042969 8.601562 -11.011719 8.527344 -17.757812 L 8.710938 -17.757812 L 12.605469 -5.5625 C 13.160156 -3.820312 14.011719 -2.964844 15.273438 -2.964844 C 16.496094 -2.964844 17.386719 -3.820312 17.980469 -5.523438 L 22.207031 -17.757812 L 22.355469 -17.757812 L 22.390625 -12.863281 C 22.390625 -9.601562 22.355469 -6.375 22.316406 -3.152344 C 22.316406 -1.113281 23.429688 0 25.46875 0 L 26.136719 0 C 28.175781 0 29.289062 -1.113281 29.289062 -3.152344 C 29.289062 -6.375 29.25 -9.601562 29.25 -12.863281 C 29.25 -16.089844 29.289062 -19.316406 29.289062 -22.539062 C 29.289062 -24.578125 28.175781 -25.691406 26.136719 -25.691406 Z M 26.136719 -25.691406 "/></g></g></g><g fill="#ffcc00" fill-opacity="1"><g transform="translate(130.917472, 48.811618)"><g><path d="M 20.277344 -9.492188 C 20.277344 -12.160156 20.316406 -14.71875 20.351562 -17.3125 C 20.351562 -19.390625 19.242188 -20.5 17.203125 -20.5 L 16.980469 -20.5 C 14.941406 -20.5 13.828125 -19.390625 13.863281 -17.351562 C 13.902344 -14.71875 13.9375 -12.160156 13.863281 -9.492188 C 13.863281 -6.710938 12.828125 -5.300781 11.085938 -5.265625 C 9.640625 -5.226562 8.601562 -6.300781 8.601562 -8.414062 C 8.601562 -11.457031 8.636719 -14.347656 8.675781 -17.351562 C 8.675781 -19.390625 7.5625 -20.5 5.523438 -20.5 L 5.300781 -20.5 C 3.261719 -20.5 2.148438 -19.390625 2.148438 -17.351562 C 2.1875 -13.9375 2.261719 -10.675781 2.1875 -7.230469 C 2.074219 -1.59375 4.410156 0.40625 8.378906 0.40625 C 11.195312 0.40625 13.496094 -1.296875 14.53125 -4.1875 L 14.679688 -4.113281 C 14.679688 2.222656 12.308594 3.929688 6.597656 3.632812 C 4.484375 3.558594 3.261719 4.226562 3.152344 5.859375 C 3.003906 7.5625 3.746094 8.824219 5.597656 9.15625 C 6.375 9.269531 7.230469 9.34375 8.082031 9.34375 C 15.570312 9.34375 20.464844 5.375 20.316406 -4.820312 C 20.316406 -6.375 20.277344 -7.898438 20.277344 -9.492188 Z M 20.277344 -9.492188 "/></g></g></g><g fill="#081e3f" fill-opacity="1"><g transform="translate(158.778822, 48.811618)"><g><path d="M 11.234375 0.0351562 C 19.648438 0 23.132812 -4.1875 23.132812 -13.199219 C 23.132812 -22.242188 19.648438 -25.691406 11.234375 -25.691406 L 6.003906 -25.691406 C 3.964844 -25.691406 2.855469 -24.542969 2.855469 -22.390625 C 2.855469 -11.160156 2.816406 -6.449219 2.78125 -3.078125 C 2.78125 -1.074219 3.894531 0 5.933594 0 Z M 9.75 -5.117188 C 9.714844 -6.375 9.714844 -7.75 9.714844 -9.082031 C 9.714844 -15.421875 9.714844 -18.015625 9.75 -20.574219 L 11.085938 -20.574219 C 15.089844 -20.574219 16.273438 -18.535156 16.273438 -12.863281 C 16.273438 -7.898438 14.941406 -5.117188 11.085938 -5.117188 Z M 9.75 -5.117188 "/></g></g></g><g fill="#081e3f" fill-opacity="1"><g transform="translate(182.282555, 48.811618)"><g><path d="M 7.75 0.371094 C 9.824219 0.371094 11.828125 -0.332031 13.308594 -1.78125 C 13.347656 -1.484375 13.382812 -1.1875 13.496094 -0.890625 C 13.644531 -0.296875 14.644531 0 16.535156 0 L 16.867188 0 C 18.871094 0 19.90625 -1.148438 19.796875 -3.226562 C 19.6875 -5.746094 19.6875 -8.972656 19.6875 -13.421875 C 19.6875 -18.386719 16.941406 -20.835938 11.417969 -20.835938 C 6.003906 -20.835938 3.152344 -19.390625 2.296875 -16.496094 C 1.707031 -14.457031 3.226562 -13.273438 5.300781 -13.273438 L 5.671875 -13.273438 C 7.488281 -13.273438 7.636719 -14.273438 8.710938 -15.902344 C 9.15625 -16.570312 9.972656 -16.832031 10.9375 -16.832031 C 12.566406 -16.832031 13.308594 -16.015625 13.308594 -13.308594 L 13.308594 -12.046875 C 4.96875 -12.269531 1.148438 -9.863281 1.148438 -5.226562 C 1.148438 -1.335938 4.078125 0.371094 7.75 0.371094 Z M 9.714844 -3.820312 C 7.96875 -3.820312 7.042969 -4.820312 7.042969 -6.226562 C 7.042969 -8.601562 10.007812 -9.007812 13.382812 -9.082031 L 13.382812 -5.746094 C 12.53125 -4.523438 11.382812 -3.820312 9.714844 -3.820312 Z M 9.714844 -3.820312 "/></g></g></g><g fill="#081e3f" fill-opacity="1"><g transform="translate(202.375625, 48.811618)"><g><path d="M 20.277344 -9.492188 C 20.277344 -12.160156 20.316406 -14.71875 20.351562 -17.3125 C 20.351562 -19.390625 19.242188 -20.5 17.203125 -20.5 L 16.980469 -20.5 C 14.941406 -20.5 13.828125 -19.390625 13.863281 -17.351562 C 13.902344 -14.71875 13.9375 -12.160156 13.863281 -9.492188 C 13.863281 -6.710938 12.828125 -5.300781 11.085938 -5.265625 C 9.640625 -5.226562 8.601562 -6.300781 8.601562 -8.414062 C 8.601562 -11.457031 8.636719 -14.347656 8.675781 -17.351562 C 8.675781 -19.390625 7.5625 -20.5 5.523438 -20.5 L 5.300781 -20.5 C 3.261719 -20.5 2.148438 -19.390625 2.148438 -17.351562 C 2.1875 -13.9375 2.261719 -10.675781 2.1875 -7.230469 C 2.074219 -1.59375 4.410156 0.40625 8.378906 0.40625 C 11.195312 0.40625 13.496094 -1.296875 14.53125 -4.1875 L 14.679688 -4.113281 C 14.679688 2.222656 12.308594 3.929688 6.597656 3.632812 C 4.484375 3.558594 3.261719 4.226562 3.152344 5.859375 C 3.003906 7.5625 3.746094 8.824219 5.597656 9.15625 C 6.375 9.269531 7.230469 9.34375 8.082031 9.34375 C 15.570312 9.34375 20.464844 5.375 20.316406 -4.820312 C 20.316406 -6.375 20.277344 -7.898438 20.277344 -9.492188 Z M 20.277344 -9.492188 "/></g></g></g></svg>